<?xml version="1.0" encoding="UTF-8"?>
<svg width="256px" height="256px" viewBox="0 0 256 256" version="1.1" xmlns="http://www.w3.org/2000/svg" xmlns:xlink="http://www.w3.org/1999/xlink">
    <!-- Generator: Sketch 52.5 (67469) - http://www.bohemiancoding.com/sketch -->
    <title>09d</title>
    <desc>Created with Sketch.</desc>
    <g id="09d" stroke="none" stroke-width="1" fill="none" fill-rule="evenodd">
        <path d="M99,234 L122,145" id="Path" stroke="#FFFFFF" stroke-width="3" stroke-linecap="square"></path>
        <path d="M87.5918161,183.144712 L99,139" id="Path-Copy" stroke="#FFFFFF" stroke-width="3" stroke-linecap="square"></path>
        <path d="M153.964078,202.921611 L171,137" id="Path-Copy-3" stroke="#FFFFFF" stroke-width="3" stroke-linecap="square"></path>
        <polygon id="Path-Copy-2" stroke="#FFFFFF" stroke-width="4" stroke-linecap="square" points="219.361328 123 101.903856 123 53 123 77.6951562 74.3663004 121.124569 52 142.413497 74.3663004 167.108653 84.3791209 178.178895 103.559524"></polygon>
        <polyline id="Line" stroke="#FFFFFF" stroke-width="4" stroke-linecap="round" stroke-linejoin="round" points="83.2623378 6 83.2623378 20.690918 83.2623378 35.3818359"></polyline>
        <path d="M82.5,6 L82.5,35.3818359" id="Line" stroke="#FFFFFF" stroke-width="4" stroke-linecap="round" stroke-linejoin="round"></path>
        <path d="M57.4454163,50.690918 L32,36" id="Line-Copy" stroke="#FFFFFF" stroke-width="4" stroke-linecap="round" stroke-linejoin="round"></path>
        <path d="M133.445416,36 L108,50.690918" id="Line" stroke="#FFFFFF" stroke-width="4" stroke-linecap="round" stroke-linejoin="round"></path>
        <path d="M57.4454163,80 L32,94.690918" id="Line-Copy" stroke="#FFFFFF" stroke-width="4" stroke-linecap="round" stroke-linejoin="round"></path>
        <polyline id="Path" stroke="#FFFFFF" stroke-width="4" stroke-linecap="round" stroke-linejoin="round" points="73.0991867 78.3727089 67 69.9778986 67 59.6013425 73.0991867 51.2065322 82.967878 48 92.8365694 51.2065322 98.935756 59.6013425"></polyline>
    </g>
</svg>