<?xml version="1.0" encoding="UTF-8"?>
<svg width="256px" height="256px" viewBox="0 0 256 256" version="1.1" xmlns="http://www.w3.org/2000/svg" xmlns:xlink="http://www.w3.org/1999/xlink">
    <title>13d</title>
    <g id="13d" stroke="none" stroke-width="1" fill="none" fill-rule="evenodd">
        <polygon id="Path-Copy-2" stroke="#FFFFFF" stroke-width="4" stroke-linecap="square" points="219.361328 115 101.903856 115 53 115 77.6951562 66.3663004 121.124569 44 142.413497 66.3663004 167.108653 76.3791209 178.178895 95.5595238"></polygon>
        <polygon id="Path" stroke="#FFFFFF" stroke-width="4" fill-rule="nonzero" points="96.3759779 137 103.135728 138.984846 107.749341 144.309219 108.751958 151.282661 105.825315 157.691142 99.8985668 161.5 92.8533891 161.5 86.9266581 157.691142 84 151.282661 85.0026279 144.309219 89.6162278 138.984846"></polygon>
        <polygon id="Path-Copy" stroke="#FFFFFF" stroke-width="4" fill-rule="nonzero" points="103.375978 196.5 110.135728 198.484846 114.749341 203.809219 115.751958 210.782661 112.825315 217.191142 106.898567 221 99.8533891 221 93.9266581 217.191142 91 210.782661 92.0026279 203.809219 96.6162278 198.484846"></polygon>
        <polygon id="Path-Copy-3" stroke="#FFFFFF" stroke-width="4" fill-rule="nonzero" points="134.375978 153 141.135728 154.984846 145.749341 160.309219 146.751958 167.282661 143.825315 173.691142 137.898567 177.5 130.853389 177.5 124.926658 173.691142 122 167.282661 123.002628 160.309219 127.616228 154.984846"></polygon>
        <polygon id="Path-Copy-4" stroke="#FFFFFF" stroke-width="4" fill-rule="nonzero" points="172.375978 128.5 179.135728 130.484846 183.749341 135.809219 184.751958 142.782661 181.825315 149.191142 175.898567 153 168.853389 153 162.926658 149.191142 160 142.782661 161.002628 135.809219 165.616228 130.484846"></polygon>
    </g>
</svg>