<?xml version="1.0" encoding="utf-8"?>
<!-- Generator: Adobe Illustrator 26.4.1, SVG Export Plug-In . SVG Version: 6.00 Build 0)  -->
<svg version="1.1" id="Layer_1" xmlns="http://www.w3.org/2000/svg" xmlns:xlink="http://www.w3.org/1999/xlink" x="0px" y="0px"
	 viewBox="0 0 464 316" style="enable-background:new 0 0 464 316;" xml:space="preserve">
<style type="text/css">
	.st0{fill-rule:evenodd;clip-rule:evenodd;fill:#0033FF;}
</style>
<path class="st0" d="M0,32L32,0v24L0,56V32z M32,48L0,80v96l32-32V48z M48,80c0-17.7,14.3-32,32-32h176l-32,32H80v16h128
	c17.7,0,32,14.3,32,32v16c0,17.7-14.3,32-32,32H32l32-32h144v-16H80c-17.7,0-32-14.3-32-32V80z M256,80c0-17.7,14.3-32,32-32h176
	l-32,32H288v16h128c17.7,0,32,14.3,32,32v16c0,17.7-14.3,32-32,32H240l32-32h144v-16H288c-17.7,0-32-14.3-32-32V80z M181.3,200.1
	h2.3v14.4h-2.3V200.1z M181.3,193.6h2.4v2.4h-2.4V193.6z M3.5,193.6H1.1v20.9h2.3V193.6z M30.6,201.5c-1-1-2.1-1.5-3.5-1.5H16.6
	c-1.6,0-2.9,0.5-4.1,1.6c-1.1,1.1-1.8,2.4-1.8,3.9h0v8.8H13V206c0-1,0.3-1.8,1-2.5c0.7-0.7,1.5-1,2.5-1h10.5c0.7,0,1.3,0.3,1.9,0.8
	c0.5,0.5,0.8,1.1,0.8,1.9v9.4H32V205C32,203.7,31.5,202.5,30.6,201.5z M44.1,200.1h5.1v2.3h-5.1v7.1c0,0.7,0.3,1.3,0.8,1.9
	c0.5,0.5,1.1,0.8,1.9,0.8h2.5v2.3h-2.5c-1.4,0-2.5-0.5-3.5-1.5c-1-1-1.5-2.1-1.5-3.5v-7.1h-2.5v-2.3h2.5v-6.5h2.3V200.1z
	 M75.9,201.8c-1.2-1.2-2.6-1.7-4.2-1.7H61.3c-1.4,0-2.6,0.5-3.5,1.5c-1,1-1.4,2.1-1.4,3.5v4.4c0,1.4,0.5,2.5,1.4,3.5
	c1,1,2.1,1.5,3.5,1.5h16.4v-2.3H61.3c-0.7,0-1.3-0.3-1.9-0.8c-0.5-0.5-0.8-1.1-0.8-1.9v-1.5h19V206C77.7,204.3,77.1,203,75.9,201.8z
	 M74.1,203.3c0.7,0.6,1.1,1.4,1.2,2.3H58.6V205c0-0.7,0.3-1.3,0.8-1.9c0.5-0.5,1.1-0.8,1.9-0.8h10.5
	C72.7,202.4,73.5,202.7,74.1,203.3z M84.8,205c0-1.4,0.5-2.5,1.4-3.5c1-1,2.1-1.4,3.5-1.4h12.7v2.3H89.8c-0.7,0-1.3,0.3-1.8,0.8
	c-0.5,0.5-0.8,1.1-0.8,1.8v9.5h-2.3V205z M127.7,201.5c-1-1-2.1-1.5-3.5-1.5h-10.5c-1.6,0-2.9,0.5-4.1,1.6c-1.1,1.1-1.8,2.4-1.8,3.9
	h0v8.8h2.3V206c0-1,0.3-1.8,1-2.5s1.5-1,2.5-1h10.5c0.7,0,1.3,0.3,1.9,0.8c0.5,0.5,0.8,1.1,0.8,1.9v9.4h2.3V205
	C129.2,203.7,128.7,202.5,127.7,201.5z M140.9,212.1c-0.6,0-1.2-0.1-1.6-0.3c-0.7-0.3-1-0.9-1-1.6V210c0-0.8,0.3-1.3,1-1.6
	c0.4-0.2,1-0.3,1.6-0.3h11.4c0.6,0,1.2,0.1,1.6,0.3c0.7,0.3,1,0.9,1,1.6c0,1.4-0.9,2.2-2.6,2.2H140.9z M157.3,204.8
	c0-1.3-0.5-2.4-1.5-3.3c-1-0.9-2.1-1.4-3.5-1.4h-14.8v2.3h14.8c0.7,0,1.3,0.3,1.9,0.8c0.5,0.5,0.8,1,0.8,1.6v1.4
	c-0.8-0.4-1.6-0.6-2.6-0.6h-11.4c-1.5,0-2.7,0.4-3.6,1.2c-0.9,0.8-1.4,1.8-1.4,3.1v0.2c0,1.3,0.5,2.3,1.4,3.1
	c0.9,0.8,2.1,1.2,3.6,1.2h11.4c1.5,0,2.7-0.4,3.6-1.2c0.9-0.8,1.3-1.9,1.4-3.3V204.8z M174,200.1h-5.1v-6.5h-2.3v6.5H164v2.3h2.5
	v7.1c0,1.4,0.5,2.5,1.5,3.5c1,1,2.1,1.5,3.5,1.5h2.5v-2.3h-2.5c-0.7,0-1.3-0.3-1.9-0.8c-0.5-0.5-0.8-1.1-0.8-1.9v-7.1h5.1V200.1z
	 M210.9,201.5c-1-1-2.1-1.4-3.5-1.4h-11.5c-1.4,0-2.5,0.5-3.5,1.4c-1,1-1.4,2.1-1.4,3.5v4.5c0,1.4,0.5,2.5,1.4,3.5
	c1,1,2.1,1.4,3.5,1.4h11.5c1.4,0,2.5-0.5,3.5-1.4c1-1,1.4-2.1,1.4-3.5V205C212.3,203.6,211.8,202.5,210.9,201.5z M209.2,203.2
	c0.5,0.5,0.8,1.1,0.8,1.8v4.5c0,0.7-0.3,1.3-0.8,1.8c-0.5,0.5-1.1,0.8-1.8,0.8h-11.5c-0.7,0-1.3-0.3-1.8-0.8
	c-0.5-0.5-0.8-1.1-0.8-1.8V205c0-0.7,0.3-1.3,0.8-1.8c0.5-0.5,1.1-0.8,1.8-0.8h11.5C208.1,202.4,208.7,202.7,209.2,203.2z
	 M235.9,200.1c1.4,0,2.5,0.5,3.5,1.5s1.5,2.1,1.5,3.5v9.4h-2.3V205c0-0.7-0.3-1.3-0.8-1.9c-0.5-0.5-1.1-0.8-1.9-0.8h-10.5
	c-1,0-1.8,0.3-2.5,1s-1,1.5-1,2.5v8.5h-2.3v-8.8h0c0.1-1.6,0.7-2.9,1.8-3.9c1.1-1.1,2.5-1.6,4.1-1.6H235.9z M250.9,211.8
	c0.4,0.2,1,0.3,1.6,0.3H264c1.8,0,2.6-0.7,2.6-2.2c0-0.7-0.3-1.3-1-1.6c-0.4-0.2-1-0.3-1.6-0.3h-11.4c-0.6,0-1.2,0.1-1.6,0.3
	c-0.7,0.3-1,0.9-1,1.6v0.2C249.9,210.9,250.2,211.5,250.9,211.8z M267.4,201.5c1,0.9,1.5,2,1.5,3.3v5.2c0,1.4-0.5,2.4-1.4,3.3
	c-0.9,0.8-2.1,1.2-3.6,1.2h-11.4c-1.5,0-2.7-0.4-3.6-1.2c-0.9-0.8-1.4-1.8-1.4-3.1V210c0-1.3,0.5-2.3,1.4-3.1
	c0.9-0.8,2.1-1.2,3.6-1.2H264c1,0,1.9,0.2,2.6,0.6v-1.4c0-0.6-0.3-1.1-0.8-1.6c-0.5-0.5-1.2-0.8-1.9-0.8h-14.8v-2.3H264
	C265.3,200.1,266.5,200.5,267.4,201.5z M278.3,209.5c0,0.7,0.3,1.3,0.8,1.9c0.5,0.5,1.1,0.8,1.9,0.8h2.4v2.3h-2.4
	c-1.4,0-2.6-0.5-3.5-1.5c-1-1-1.5-2.1-1.5-3.5v-15.9h2.3V209.5z M21.2,240.8c-0.9-0.9-2.1-1.3-3.7-1.3H6.1c-0.8,0-1.5-0.2-1.9-0.5
	c-0.4-0.3-0.6-0.7-0.6-1.2c0-0.5,0.2-0.9,0.6-1.2c0.5-0.4,1.1-0.5,1.9-0.5h14.4v-2.3H6.1c-1.5,0-2.7,0.4-3.7,1.3
	c-0.8,0.8-1.3,1.7-1.3,2.8c0,1.1,0.4,2,1.3,2.8c0.9,0.9,2.1,1.3,3.7,1.3h11.5c0.8,0,1.5,0.2,1.9,0.6c0.4,0.4,0.6,0.8,0.6,1.3
	c0,0.5-0.2,1-0.6,1.3c-0.5,0.4-1.1,0.6-1.9,0.6H1.1v2.3h16.4c1.5,0,2.7-0.4,3.7-1.3c0.8-0.8,1.2-1.8,1.2-2.9
	C22.5,242.6,22,241.6,21.2,240.8z M46,233.6c1.4,0,2.5,0.5,3.5,1.5c1,1,1.5,2.1,1.5,3.5v4.4c0,1.4-0.5,2.5-1.5,3.5
	c-1,1-2.1,1.5-3.5,1.5H35.6c-1.3,0-2.5-0.4-3.6-1.2v7.4h-2.3v-14.6c0-1.6,0.6-3,1.7-4.2c1.2-1.2,2.6-1.7,4.2-1.7H46z M48.7,238.6
	c0-0.7-0.3-1.3-0.8-1.9c-0.5-0.5-1.1-0.8-1.9-0.8H35.6c-1,0-1.8,0.3-2.5,1c-0.7,0.7-1,1.5-1,2.5v2.6c0,1,0.3,1.8,1,2.5
	c0.7,0.7,1.5,1.1,2.5,1.1H46c0.7,0,1.3-0.3,1.9-0.8c0.5-0.5,0.8-1.1,0.8-1.9V238.6z M61.1,245.4c0.4,0.2,1,0.3,1.6,0.3h11.4
	c1.8,0,2.6-0.7,2.6-2.2c0-0.7-0.3-1.3-1-1.6c-0.4-0.2-1-0.3-1.6-0.3H62.7c-0.6,0-1.2,0.1-1.6,0.3c-0.7,0.3-1,0.9-1,1.6v0.2
	C60.1,244.5,60.4,245.1,61.1,245.4z M77.6,235c1,0.9,1.5,2,1.5,3.3v5.2c0,1.4-0.5,2.4-1.4,3.3c-0.9,0.8-2.1,1.2-3.6,1.2H62.7
	c-1.5,0-2.7-0.4-3.6-1.2c-0.9-0.8-1.4-1.8-1.4-3.1v-0.2c0-1.3,0.5-2.3,1.4-3.1c0.9-0.8,2.1-1.2,3.6-1.2h11.4c1,0,1.9,0.2,2.6,0.6
	v-1.4c0-0.6-0.3-1.1-0.8-1.6c-0.5-0.5-1.2-0.8-1.9-0.8H59.4v-2.3h14.8C75.5,233.6,76.6,234.1,77.6,235z M85.8,239.5
	c0-1.6,0.6-3,1.7-4.2c1.2-1.2,2.6-1.7,4.2-1.7h13.4v2.3H91.7c-1,0-1.8,0.3-2.5,1c-0.7,0.7-1,1.5-1,2.5v2.6c0,1,0.3,1.8,1,2.5
	c0.7,0.7,1.5,1.1,2.5,1.1h13.4v2.3H91.7c-1.6,0-3-0.6-4.2-1.7c-1.2-1.2-1.7-2.6-1.7-4.2V239.5z M132,235.4c-1.2-1.2-2.6-1.7-4.2-1.7
	h-10.5c-1.4,0-2.6,0.5-3.5,1.5c-1,1-1.4,2.1-1.4,3.5v4.4c0,1.4,0.5,2.5,1.4,3.5c1,1,2.1,1.5,3.5,1.5h16.4v-2.3h-16.4
	c-0.7,0-1.3-0.3-1.9-0.8c-0.5-0.5-0.8-1.1-0.8-1.9v-1.5h19v-1.9C133.7,237.9,133.1,236.5,132,235.4z M130.2,236.9
	c0.7,0.6,1.1,1.4,1.2,2.3h-16.7v-0.5c0-0.7,0.3-1.3,0.8-1.9c0.5-0.5,1.1-0.8,1.9-0.8h10.5C128.7,236,129.5,236.3,130.2,236.9z
	 M17.6,273c1.5,0,2.7,0.4,3.7,1.3c0.8,0.8,1.2,1.8,1.2,2.9c0,1.1-0.4,2.1-1.2,2.9c-0.9,0.9-2.1,1.3-3.7,1.3H1.1v-2.3h16.4
	c0.8,0,1.5-0.2,1.9-0.6c0.4-0.4,0.6-0.8,0.6-1.3s-0.2-1-0.6-1.3c-0.5-0.4-1.1-0.6-1.9-0.6H6.1c-1.5,0-2.7-0.4-3.7-1.3
	c-0.8-0.8-1.3-1.7-1.3-2.8c0-1.1,0.4-2,1.3-2.8c0.9-0.9,2.1-1.3,3.7-1.3h14.4v2.3H6.1c-0.8,0-1.5,0.2-1.9,0.5
	c-0.4,0.3-0.6,0.7-0.6,1.2c0,0.5,0.2,0.9,0.6,1.2c0.5,0.4,1.1,0.5,1.9,0.5H17.6z M39.6,267.2h-5.1v-6.5h-2.3v6.5h-2.5v2.3h2.5v7.1
	c0,1.4,0.5,2.5,1.5,3.5c1,1,2.1,1.5,3.5,1.5h2.5v-2.3h-2.5c-0.7,0-1.3-0.3-1.9-0.8c-0.5-0.5-0.8-1.1-0.8-1.9v-7.1h5.1V267.2z
	 M51.3,279.3c-0.6,0-1.2-0.1-1.6-0.3c-0.7-0.3-1-0.9-1-1.6v-0.2c0-0.8,0.3-1.3,1-1.6c0.4-0.2,1-0.3,1.6-0.3h11.4
	c0.6,0,1.2,0.1,1.6,0.3c0.7,0.3,1,0.9,1,1.6c0,1.4-0.9,2.2-2.6,2.2H51.3z M67.7,272c0-1.3-0.5-2.4-1.5-3.3c-1-0.9-2.1-1.4-3.5-1.4
	H48v2.3h14.8c0.7,0,1.3,0.3,1.9,0.8c0.5,0.5,0.8,1,0.8,1.6v1.4c-0.8-0.4-1.6-0.6-2.6-0.6H51.3c-1.5,0-2.7,0.4-3.6,1.2
	c-0.9,0.8-1.4,1.8-1.4,3.1v0.2c0,1.3,0.5,2.3,1.4,3.1c0.9,0.8,2.1,1.2,3.6,1.2h11.4c1.5,0,2.7-0.4,3.6-1.2c0.9-0.8,1.3-1.9,1.4-3.3
	V272z M84.4,267.2h-5.1v-6.5h-2.3v6.5h-2.5v2.3h2.5v7.1c0,1.4,0.5,2.5,1.5,3.5c1,1,2.1,1.5,3.5,1.5h2.5v-2.3h-2.5
	c-0.7,0-1.3-0.3-1.9-0.8c-0.5-0.5-0.8-1.1-0.8-1.9v-7.1h5.1V267.2z M91.7,267.2H94v14.4h-2.3V267.2z M91.7,260.7H94v2.4h-2.4V260.7z
	 M121.3,268.7c-1-1-2.1-1.4-3.5-1.4h-11.5c-1.4,0-2.5,0.5-3.5,1.4c-1,1-1.4,2.1-1.4,3.5v4.5c0,1.4,0.5,2.5,1.4,3.5
	c1,1,2.1,1.4,3.5,1.4h11.5c1.4,0,2.5-0.5,3.5-1.4c1-1,1.4-2.1,1.4-3.5v-4.5C122.7,270.8,122.2,269.6,121.3,268.7z M119.6,270.3
	c0.5,0.5,0.8,1.1,0.8,1.8v4.5c0,0.7-0.3,1.3-0.8,1.8c-0.5,0.5-1.1,0.8-1.8,0.8h-11.5c-0.7,0-1.3-0.3-1.8-0.8
	c-0.5-0.5-0.8-1.1-0.8-1.8v-4.5c0-0.7,0.3-1.3,0.8-1.8c0.5-0.5,1.1-0.8,1.8-0.8h11.5C118.5,269.6,119.1,269.8,119.6,270.3z
	 M146.3,267.2c1.4,0,2.5,0.5,3.5,1.5c1,1,1.5,2.1,1.5,3.5v9.4h-2.3v-9.4c0-0.7-0.3-1.3-0.8-1.9c-0.5-0.5-1.1-0.8-1.9-0.8h-10.5
	c-1,0-1.8,0.3-2.5,1c-0.7,0.7-1,1.5-1,2.5v8.5h-2.3v-8.8h0c0.1-1.6,0.7-2.9,1.8-3.9c1.1-1.1,2.5-1.6,4.1-1.6H146.3z M11.1,300.8H6
	v-6.5H3.7v6.5H1.1v2.3h2.5v7.1c0,1.4,0.5,2.5,1.5,3.5c1,1,2.1,1.5,3.5,1.5h2.5v-2.3H8.7c-0.7,0-1.3-0.3-1.9-0.8
	c-0.5-0.5-0.8-1.1-0.8-1.9v-7.1h5.1V300.8z M18.3,305.7c0-1.4,0.5-2.5,1.4-3.5c1-1,2.1-1.4,3.5-1.4h12.7v2.3H23.2
	c-0.7,0-1.3,0.3-1.8,0.8c-0.5,0.5-0.8,1.1-0.8,1.8v9.5h-2.3V305.7z M44.2,312.5c0.4,0.2,1,0.3,1.6,0.3h11.4c1.8,0,2.6-0.7,2.6-2.2
	c0-0.7-0.3-1.3-1-1.6c-0.4-0.2-1-0.3-1.6-0.3H45.8c-0.6,0-1.2,0.1-1.6,0.3c-0.7,0.3-1,0.9-1,1.6v0.2
	C43.2,311.7,43.5,312.2,44.2,312.5z M60.7,302.2c1,0.9,1.5,2,1.5,3.3v5.2c0,1.4-0.5,2.4-1.4,3.3c-0.9,0.8-2.1,1.2-3.6,1.2H45.8
	c-1.5,0-2.7-0.4-3.6-1.2c-0.9-0.8-1.4-1.8-1.4-3.1v-0.2c0-1.3,0.5-2.3,1.4-3.1c0.9-0.8,2.1-1.2,3.6-1.2h11.4c1,0,1.9,0.2,2.6,0.6
	v-1.4c0-0.6-0.3-1.1-0.8-1.6c-0.5-0.5-1.2-0.8-1.9-0.8H42.5v-2.3h14.8C58.6,300.8,59.7,301.3,60.7,302.2z M68.9,306.7
	c0-1.6,0.6-3,1.7-4.2c1.2-1.2,2.6-1.7,4.2-1.7h13.4v2.3H74.8c-1,0-1.8,0.3-2.5,1c-0.7,0.7-1,1.5-1,2.5v2.6c0,1,0.3,1.8,1,2.5
	c0.7,0.7,1.5,1.1,2.5,1.1h13.4v2.3H74.8c-1.6,0-3-0.6-4.2-1.7c-1.2-1.2-1.7-2.6-1.7-4.2V306.7z M116.8,313.2c0-1.5-0.6-2.8-1.7-3.7
	c1.1-1,1.7-2.2,1.7-3.8c0-1.3-0.4-2.4-1.3-3.4c-0.9-1-2.2-1.5-3.7-1.5h-11.4c-0.9,0-1.8,0.3-2.6,0.8v-7.2h-2.3v20.9h2.3v-4.5h14
	c0.7,0,1.3,0.3,1.9,0.8c0.5,0.5,0.8,1.1,0.8,1.9v1.9h2.3V313.2z M113.8,307.5c-0.5,0.5-1.1,0.8-2,0.8h-14v-2.5
	c0-0.7,0.3-1.3,0.8-1.9c0.5-0.5,1.1-0.8,1.9-0.8h11.4c0.8,0,1.5,0.3,2,0.8c0.4,0.5,0.6,1.1,0.6,1.8
	C114.5,306.4,114.2,307,113.8,307.5z M139.4,300.8c1.6,0,3,0.6,4.2,1.7c1.2,1.1,1.7,2.5,1.7,4.2v1.9h-19v1.5c0,0.7,0.3,1.3,0.8,1.9
	c0.5,0.5,1.1,0.8,1.9,0.8h16.4v2.3H129c-1.4,0-2.6-0.5-3.5-1.5c-1-1-1.4-2.1-1.4-3.5v-4.4c0-1.4,0.5-2.5,1.4-3.5
	c1-1,2.1-1.5,3.5-1.5H139.4z M143,306.3c-0.1-0.9-0.5-1.6-1.2-2.3c-0.7-0.6-1.5-0.9-2.4-0.9H129c-0.7,0-1.3,0.3-1.9,0.8
	c-0.5,0.5-0.8,1.1-0.8,1.9v0.5H143z M154,302.2c-1,1-1.4,2.1-1.4,3.5v9.5h2.3v-9.5c0-0.7,0.3-1.3,0.8-1.8c0.5-0.5,1.1-0.8,1.8-0.8
	h12.7v-2.3h-12.7C156.1,300.8,154.9,301.3,154,302.2z"/>
</svg>
