<svg width="464" height="266" viewBox="0 0 464 266" fill="none" xmlns="http://www.w3.org/2000/svg">
<path fill-rule="evenodd" clip-rule="evenodd" d="M0 32L32 0V24L0 56V32ZM32 48L0 80V176L32 144V48ZM48 80C48 62.3269 62.3269 48 80 48H256L224 80H80V96H208C225.673 96 240 110.327 240 128V144C240 161.673 225.673 176 208 176H32L64 144H208V128H80C62.3269 128 48 113.673 48 96V80ZM256 80C256 62.3269 270.327 48 288 48H464L432 80H288V96H416C433.673 96 448 110.327 448 128V144C448 161.673 433.673 176 416 176H240L272 144H416V128H288C270.327 128 256 113.673 256 96V80ZM108.459 197.431H109.857V206H108.459V197.431ZM108.459 193.555H109.865V194.961H108.459V193.555ZM2.54004 193.563H1.14258V206H2.54004V193.563ZM18.6704 198.301C18.0904 197.721 17.3931 197.431 16.5786 197.431H10.3472C9.40969 197.431 8.60109 197.753 7.92141 198.397C7.24172 199.036 6.87551 199.818 6.82277 200.744H6.81398V206H8.21144V200.955C8.21144 200.369 8.41945 199.868 8.83547 199.452C9.25148 199.036 9.75539 198.828 10.3472 198.828H16.5786C17.0122 198.828 17.3814 198.98 17.6861 199.285C17.9907 199.59 18.1431 199.959 18.1431 200.393V206H19.5405V200.393C19.5405 199.578 19.2505 198.881 18.6704 198.301ZM26.7149 197.431H29.7471V198.828H26.7149V203.038C26.7149 203.472 26.8672 203.841 27.1719 204.146C27.4825 204.456 27.8516 204.611 28.2793 204.611H29.7471V206H28.2793C27.4649 206 26.7676 205.71 26.1875 205.13C25.6075 204.556 25.3174 203.858 25.3174 203.038V198.828H23.8057V197.431H25.3174V193.563H26.7149V197.431ZM45.7017 198.468C45.0103 197.776 44.1783 197.431 43.2056 197.431H36.9742C36.1539 197.431 35.4537 197.721 34.8736 198.301C34.2994 198.881 34.0123 199.578 34.0123 200.393V203.038C34.0123 203.858 34.2994 204.556 34.8736 205.13C35.4537 205.71 36.1539 206 36.9742 206H46.73V204.611H36.9742C36.5406 204.611 36.1714 204.456 35.8668 204.146C35.5562 203.841 35.4009 203.472 35.4009 203.038V202.115H46.7388V200.955C46.7388 199.982 46.3931 199.153 45.7017 198.468ZM44.6295 199.373C45.0337 199.736 45.2652 200.185 45.3238 200.718H35.4009V200.393C35.4009 199.959 35.5562 199.59 35.8668 199.285C36.1714 198.98 36.5406 198.828 36.9742 198.828H43.2056C43.7505 198.828 44.2252 199.01 44.6295 199.373ZM51.004 200.366C51.004 199.558 51.2911 198.866 51.8653 198.292C52.4395 197.718 53.1309 197.431 53.9395 197.431H61.4893V198.828H53.9395C53.5177 198.828 53.1544 198.978 52.8497 199.276C52.5509 199.575 52.4014 199.938 52.4014 200.366V206H51.004V200.366ZM76.565 198.301C75.985 197.721 75.2877 197.431 74.4732 197.431H68.2418C67.3043 197.431 66.4957 197.753 65.816 198.397C65.1363 199.036 64.7701 199.818 64.7174 200.744H64.7086V206H66.1061V200.955C66.1061 200.369 66.3141 199.868 66.7301 199.452C67.1461 199.036 67.65 198.828 68.2418 198.828H74.4732C74.9068 198.828 75.276 198.98 75.5807 199.285C75.8854 199.59 76.0377 199.959 76.0377 200.393V206H77.4352V200.393C77.4352 199.578 77.1451 198.881 76.565 198.301ZM84.3986 204.611C84.0236 204.611 83.7042 204.55 83.4405 204.427C83.0362 204.233 82.8341 203.911 82.8341 203.46V203.337C82.8341 202.886 83.0362 202.563 83.4405 202.37C83.6984 202.247 84.0177 202.186 84.3986 202.186H91.2013C91.5763 202.186 91.8956 202.247 92.1593 202.37C92.5636 202.563 92.7657 202.883 92.7657 203.328C92.7657 204.184 92.2443 204.611 91.2013 204.611H84.3986ZM94.1632 200.261C94.1632 199.493 93.8702 198.831 93.2843 198.274C92.6984 197.712 92.004 197.431 91.2013 197.431H82.4122V198.828H91.2013C91.629 198.828 92.0011 198.983 92.3175 199.294C92.6163 199.581 92.7657 199.903 92.7657 200.261V201.122C92.3087 200.899 91.7872 200.788 91.2013 200.788H84.3986C83.5138 200.788 82.7989 201.022 82.254 201.491C81.7091 201.96 81.4366 202.575 81.4366 203.337V203.46C81.4366 204.222 81.7091 204.837 82.254 205.306C82.7989 205.769 83.5138 206 84.3986 206H91.2013C92.0978 206 92.8155 205.76 93.3546 205.279C93.8878 204.793 94.1573 204.146 94.1632 203.337V200.261ZM104.106 197.431H101.074V193.563H99.6764V197.431H98.1647V198.828H99.6764V203.038C99.6764 203.858 99.9664 204.556 100.547 205.13C101.127 205.71 101.824 206 102.638 206H104.106V204.611H102.638C102.211 204.611 101.841 204.456 101.531 204.146C101.226 203.841 101.074 203.472 101.074 203.038V198.828H104.106V197.431ZM126.084 198.292C125.509 197.718 124.818 197.431 124.009 197.431H117.154C116.345 197.431 115.654 197.718 115.08 198.292C114.506 198.866 114.218 199.558 114.218 200.366V203.064C114.218 203.873 114.506 204.564 115.08 205.139C115.654 205.713 116.345 206 117.154 206H124.009C124.818 206 125.509 205.713 126.084 205.139C126.658 204.564 126.945 203.873 126.945 203.064V200.366C126.945 199.558 126.658 198.866 126.084 198.292ZM125.099 199.276C125.398 199.575 125.548 199.938 125.548 200.366V203.064C125.548 203.492 125.398 203.855 125.099 204.154C124.795 204.459 124.431 204.611 124.009 204.611H117.154C116.726 204.611 116.363 204.459 116.064 204.154C115.759 203.855 115.607 203.492 115.607 203.064V200.366C115.607 199.938 115.759 199.575 116.064 199.276C116.363 198.978 116.726 198.828 117.154 198.828H124.009C124.431 198.828 124.795 198.978 125.099 199.276ZM140.975 197.431C141.789 197.431 142.487 197.721 143.067 198.301C143.647 198.881 143.937 199.578 143.937 200.393V206H142.539V200.393C142.539 199.959 142.387 199.59 142.082 199.285C141.778 198.98 141.408 198.828 140.975 198.828H134.743C134.152 198.828 133.648 199.036 133.232 199.452C132.816 199.868 132.608 200.369 132.608 200.955V206H131.21V200.744H131.219C131.272 199.818 131.638 199.036 132.318 198.397C132.997 197.753 133.806 197.431 134.743 197.431H140.975ZM149.942 204.427C150.206 204.55 150.525 204.611 150.9 204.611H157.703C158.746 204.611 159.267 204.184 159.267 203.328C159.267 202.883 159.065 202.563 158.661 202.37C158.397 202.247 158.078 202.186 157.703 202.186H150.9C150.519 202.186 150.2 202.247 149.942 202.37C149.538 202.563 149.336 202.886 149.336 203.337V203.46C149.336 203.911 149.538 204.233 149.942 204.427ZM159.786 198.274C160.372 198.831 160.665 199.493 160.665 200.261V203.337C160.659 204.146 160.389 204.793 159.856 205.279C159.317 205.76 158.599 206 157.703 206H150.9C150.015 206 149.301 205.769 148.756 205.306C148.211 204.837 147.938 204.222 147.938 203.46V203.337C147.938 202.575 148.211 201.96 148.756 201.491C149.301 201.022 150.015 200.788 150.9 200.788H157.703C158.289 200.788 158.81 200.899 159.267 201.122V200.261C159.267 199.903 159.118 199.581 158.819 199.294C158.503 198.983 158.131 198.828 157.703 198.828H148.914V197.431H157.703C158.506 197.431 159.2 197.712 159.786 198.274ZM166.239 203.038C166.239 203.472 166.392 203.841 166.697 204.146C167.007 204.456 167.379 204.611 167.813 204.611H169.272V206H167.813C166.992 206 166.292 205.71 165.712 205.13C165.132 204.556 164.842 203.858 164.842 203.038V193.563H166.239V203.038ZM13.1045 221.711C12.5596 221.178 11.833 220.911 10.9248 220.911H4.06934C3.57129 220.911 3.18457 220.803 2.90918 220.586C2.66309 220.393 2.54004 220.155 2.54004 219.874C2.54004 219.587 2.66309 219.347 2.90918 219.153C3.18457 218.937 3.57129 218.828 4.06934 218.828H12.6562V217.431H4.06934C3.16113 217.431 2.43457 217.686 1.88965 218.195C1.3916 218.658 1.14258 219.218 1.14258 219.874C1.14258 220.524 1.3916 221.081 1.88965 221.544C2.43457 222.054 3.16113 222.309 4.06934 222.309H10.9248C11.417 222.309 11.8008 222.429 12.0762 222.669C12.3223 222.88 12.4453 223.144 12.4453 223.46C12.4453 223.776 12.3223 224.04 12.0762 224.251C11.8008 224.491 11.417 224.611 10.9248 224.611H1.14258V226H10.9248C11.8271 226 12.5537 225.736 13.1045 225.209C13.5967 224.723 13.8428 224.14 13.8428 223.46C13.8428 222.774 13.5967 222.191 13.1045 221.711ZM27.8814 217.439C28.6958 217.439 29.3931 217.729 29.9732 218.31C30.5532 218.89 30.8433 219.587 30.8433 220.401V223.047C30.8433 223.867 30.5532 224.564 29.9732 225.139C29.3931 225.719 28.6958 226.009 27.8814 226.009H21.6499C20.853 226.009 20.1411 225.769 19.5142 225.288V229.691H18.1167V220.964C18.1167 219.991 18.4624 219.162 19.1538 218.477C19.8452 217.785 20.6773 217.439 21.6499 217.439H27.8814ZM29.4458 220.401C29.4458 219.968 29.2935 219.599 28.9888 219.294C28.6841 218.989 28.315 218.837 27.8814 218.837H21.6499C21.0581 218.837 20.5542 219.045 20.1382 219.461C19.7222 219.877 19.5142 220.378 19.5142 220.964V222.484C19.5142 223.07 19.7222 223.571 20.1382 223.987C20.5542 224.409 21.0581 224.62 21.6499 224.62H27.8814C28.315 224.62 28.6841 224.465 28.9888 224.154C29.2935 223.85 29.4458 223.48 29.4458 223.047V220.401ZM36.8487 224.427C37.1123 224.55 37.4317 224.611 37.8067 224.611H44.6094C45.6524 224.611 46.1739 224.184 46.1739 223.328C46.1739 222.883 45.9717 222.563 45.5674 222.37C45.3037 222.247 44.9844 222.186 44.6094 222.186H37.8067C37.4258 222.186 37.1065 222.247 36.8487 222.37C36.4444 222.563 36.2422 222.886 36.2422 223.337V223.46C36.2422 223.911 36.4444 224.233 36.8487 224.427ZM46.6924 218.274C47.2784 218.831 47.5713 219.493 47.5713 220.261V223.337C47.5655 224.146 47.2959 224.793 46.7627 225.279C46.2237 225.76 45.5059 226 44.6094 226H37.8067C36.9219 226 36.2071 225.769 35.6621 225.306C35.1172 224.837 34.8448 224.222 34.8448 223.46V223.337C34.8448 222.575 35.1172 221.96 35.6621 221.491C36.2071 221.022 36.9219 220.788 37.8067 220.788H44.6094C45.1954 220.788 45.7168 220.899 46.1739 221.122V220.261C46.1739 219.903 46.0245 219.581 45.7256 219.294C45.4092 218.983 45.0371 218.828 44.6094 218.828H35.8204V217.431H44.6094C45.4121 217.431 46.1065 217.712 46.6924 218.274ZM51.5728 220.955C51.5728 219.982 51.9185 219.153 52.6099 218.468C53.3013 217.776 54.1334 217.431 55.106 217.431H63.1129V218.828H55.106C54.5142 218.828 54.0103 219.036 53.5943 219.452C53.1783 219.868 52.9703 220.369 52.9703 220.955V222.476C52.9703 223.062 53.1783 223.562 53.5943 223.979C54.0103 224.4 54.5142 224.611 55.106 224.611H63.1129V226H55.106C54.1334 226 53.3013 225.657 52.6099 224.972C51.9185 224.28 51.5728 223.448 51.5728 222.476V220.955ZM79.0762 218.468C78.3848 217.776 77.5528 217.431 76.5802 217.431H70.3487C69.5284 217.431 68.8282 217.721 68.2481 218.301C67.6739 218.881 67.3868 219.578 67.3868 220.393V223.038C67.3868 223.858 67.6739 224.556 68.2481 225.13C68.8282 225.71 69.5284 226 70.3487 226H80.1046V224.611H70.3487C69.9151 224.611 69.546 224.456 69.2413 224.146C68.9307 223.841 68.7755 223.472 68.7755 223.038V222.115H80.1134V220.955C80.1134 219.982 79.7677 219.153 79.0762 218.468ZM78.004 219.373C78.4083 219.736 78.6397 220.185 78.6983 220.718H68.7755V220.393C68.7755 219.959 68.9307 219.59 69.2413 219.285C69.546 218.98 69.9151 218.828 70.3487 218.828H76.5802C77.1251 218.828 77.5997 219.01 78.004 219.373ZM10.9248 240.911C11.833 240.911 12.5596 241.178 13.1045 241.711C13.5967 242.191 13.8428 242.774 13.8428 243.46C13.8428 244.14 13.5967 244.723 13.1045 245.209C12.5537 245.736 11.8271 246 10.9248 246H1.14258V244.611H10.9248C11.417 244.611 11.8008 244.491 12.0762 244.251C12.3223 244.04 12.4453 243.776 12.4453 243.46C12.4453 243.144 12.3223 242.88 12.0762 242.669C11.8008 242.429 11.417 242.309 10.9248 242.309H4.06934C3.16113 242.309 2.43457 242.054 1.88965 241.544C1.3916 241.081 1.14258 240.524 1.14258 239.874C1.14258 239.218 1.3916 238.658 1.88965 238.195C2.43457 237.686 3.16113 237.431 4.06934 237.431H12.6562V238.828H4.06934C3.57129 238.828 3.18457 238.937 2.90918 239.153C2.66309 239.347 2.54004 239.587 2.54004 239.874C2.54004 240.155 2.66309 240.393 2.90918 240.586C3.18457 240.803 3.57129 240.911 4.06934 240.911H10.9248ZM24.0581 237.431H21.0259V233.563H19.6284V237.431H18.1167V238.828H19.6284V243.038C19.6284 243.858 19.9185 244.556 20.4986 245.13C21.0786 245.71 21.7759 246 22.5904 246H24.0581V244.611H22.5904C22.1626 244.611 21.7935 244.456 21.4829 244.146C21.1782 243.841 21.0259 243.472 21.0259 243.038V238.828H24.0581V237.431ZM31.0215 244.611C30.6465 244.611 30.3272 244.55 30.0635 244.427C29.6592 244.233 29.4571 243.911 29.4571 243.46V243.337C29.4571 242.886 29.6592 242.563 30.0635 242.37C30.3213 242.247 30.6407 242.186 31.0215 242.186H37.8243C38.1993 242.186 38.5186 242.247 38.7823 242.37C39.1866 242.563 39.3887 242.883 39.3887 243.328C39.3887 244.184 38.8672 244.611 37.8243 244.611H31.0215ZM40.7862 240.261C40.7862 239.493 40.4932 238.831 39.9073 238.274C39.3213 237.712 38.627 237.431 37.8243 237.431H29.0352V238.828H37.8243C38.252 238.828 38.6241 238.983 38.9405 239.294C39.2393 239.581 39.3887 239.903 39.3887 240.261V241.122C38.9317 240.899 38.4102 240.788 37.8243 240.788H31.0215C30.1368 240.788 29.4219 241.022 28.877 241.491C28.3321 241.96 28.0596 242.575 28.0596 243.337V243.46C28.0596 244.222 28.3321 244.837 28.877 245.306C29.4219 245.769 30.1368 246 31.0215 246H37.8243C38.7207 246 39.4385 245.76 39.9776 245.279C40.5108 244.793 40.7803 244.146 40.7862 243.337V240.261ZM50.7291 237.431H47.6968V233.563H46.2994V237.431H44.7877V238.828H46.2994V243.038C46.2994 243.858 46.5894 244.556 47.1695 245.13C47.7496 245.71 48.4468 246 49.2613 246H50.7291V244.611H49.2613C48.8336 244.611 48.4644 244.456 48.1539 244.146C47.8492 243.841 47.6968 243.472 47.6968 243.038V238.828H50.7291V237.431ZM55.0821 237.431H56.4796V246H55.0821V237.431ZM55.0821 233.555H56.4884V234.961H55.0821V233.555ZM72.7066 238.292C72.1324 237.718 71.441 237.431 70.6324 237.431H63.777C62.9684 237.431 62.277 237.718 61.7027 238.292C61.1285 238.866 60.8414 239.558 60.8414 240.366V243.064C60.8414 243.873 61.1285 244.564 61.7027 245.139C62.277 245.713 62.9684 246 63.777 246H70.6324C71.441 246 72.1324 245.713 72.7066 245.139C73.2809 244.564 73.568 243.873 73.568 243.064V240.366C73.568 239.558 73.2809 238.866 72.7066 238.292ZM71.7223 239.276C72.0211 239.575 72.1705 239.938 72.1705 240.366V243.064C72.1705 243.492 72.0211 243.855 71.7223 244.154C71.4176 244.459 71.0543 244.611 70.6324 244.611H63.777C63.3492 244.611 62.9859 244.459 62.6871 244.154C62.3824 243.855 62.2301 243.492 62.2301 243.064V240.366C62.2301 239.938 62.3824 239.575 62.6871 239.276C62.9859 238.978 63.3492 238.828 63.777 238.828H70.6324C71.0543 238.828 71.4176 238.978 71.7223 239.276ZM87.5978 237.431C88.4122 237.431 89.1095 237.721 89.6896 238.301C90.2696 238.881 90.5597 239.578 90.5597 240.393V246H89.1622V240.393C89.1622 239.959 89.0099 239.59 88.7052 239.285C88.4005 238.98 88.0314 238.828 87.5978 238.828H81.3663C80.7745 238.828 80.2706 239.036 79.8546 239.452C79.4386 239.868 79.2306 240.369 79.2306 240.955V246H77.8331V240.744H77.8419C77.8946 239.818 78.2609 239.036 78.9405 238.397C79.6202 237.753 80.4288 237.431 81.3663 237.431H87.5978ZM7.08398 257.431H4.05176V253.563H2.6543V257.431H1.14258V258.828H2.6543V263.038C2.6543 263.858 2.94434 264.556 3.52441 265.13C4.10449 265.71 4.80176 266 5.61621 266H7.08398V264.611H5.61621C5.18848 264.611 4.81934 264.456 4.50879 264.146C4.2041 263.841 4.05176 263.472 4.05176 263.038V258.828H7.08398V257.431ZM11.3491 260.366C11.3491 259.558 11.6362 258.866 12.2105 258.292C12.7847 257.718 13.4761 257.431 14.2847 257.431H21.8345V258.828H14.2847C13.8628 258.828 13.4995 258.978 13.1948 259.276C12.896 259.575 12.7466 259.938 12.7466 260.366V266H11.3491V260.366ZM26.794 264.427C27.0577 264.55 27.377 264.611 27.752 264.611H34.5547C35.5977 264.611 36.1192 264.184 36.1192 263.328C36.1192 262.883 35.917 262.563 35.5127 262.37C35.2491 262.247 34.9297 262.186 34.5547 262.186H27.752C27.3711 262.186 27.0518 262.247 26.794 262.37C26.3897 262.563 26.1875 262.886 26.1875 263.337V263.46C26.1875 263.911 26.3897 264.233 26.794 264.427ZM36.6377 258.274C37.2237 258.831 37.5166 259.493 37.5166 260.261V263.337C37.5108 264.146 37.2412 264.793 36.708 265.279C36.169 265.76 35.4512 266 34.5547 266H27.752C26.8672 266 26.1524 265.769 25.6075 265.306C25.0625 264.837 24.7901 264.222 24.7901 263.46V263.337C24.7901 262.575 25.0625 261.96 25.6075 261.491C26.1524 261.022 26.8672 260.788 27.752 260.788H34.5547C35.1407 260.788 35.6621 260.899 36.1192 261.122V260.261C36.1192 259.903 35.9698 259.581 35.6709 259.294C35.3545 258.983 34.9825 258.828 34.5547 258.828H25.7657V257.431H34.5547C35.3575 257.431 36.0518 257.712 36.6377 258.274ZM41.5181 260.955C41.5181 259.982 41.8638 259.153 42.5552 258.468C43.2466 257.776 44.0787 257.431 45.0513 257.431H53.0582V258.828H45.0513C44.4595 258.828 43.9556 259.036 43.5396 259.452C43.1236 259.868 42.9156 260.369 42.9156 260.955V262.476C42.9156 263.062 43.1236 263.562 43.5396 263.979C43.9556 264.4 44.4595 264.611 45.0513 264.611H53.0582V266H45.0513C44.0787 266 43.2466 265.657 42.5552 264.972C41.8638 264.28 41.5181 263.448 41.5181 262.476V260.955ZM70.0587 264.857C70.0587 263.961 69.7159 263.217 69.0303 262.625C69.7042 262.051 70.0411 261.295 70.0411 260.357C70.0411 259.572 69.7921 258.901 69.294 258.345C68.7432 257.735 68.0108 257.431 67.0968 257.431H60.294C59.7315 257.431 59.21 257.58 58.7296 257.879V253.563H57.3321V266H58.7296V263.293H67.0968C67.5303 263.293 67.8995 263.445 68.2042 263.75C68.5147 264.055 68.67 264.424 68.67 264.857V266H70.0587V264.857ZM68.2745 261.412C67.9932 261.734 67.6007 261.896 67.0968 261.896H58.7296V260.393C58.7296 259.959 58.8819 259.59 59.1866 259.285C59.4971 258.98 59.8663 258.828 60.294 258.828H67.0968C67.6007 258.828 67.9932 258.986 68.2745 259.303C68.5206 259.59 68.6436 259.941 68.6436 260.357C68.6436 260.779 68.5206 261.131 68.2745 261.412ZM83.5172 257.431C84.4898 257.431 85.3219 257.776 86.0133 258.468C86.7047 259.153 87.0504 259.982 87.0504 260.955V262.115H75.7125V263.038C75.7125 263.472 75.8678 263.841 76.1783 264.146C76.483 264.456 76.8521 264.611 77.2857 264.611H87.0416V266H77.2857C76.4654 266 75.7652 265.71 75.1852 265.13C74.6109 264.556 74.3238 263.858 74.3238 263.038V260.393C74.3238 259.578 74.6109 258.881 75.1852 258.301C75.7652 257.721 76.4654 257.431 77.2857 257.431H83.5172ZM85.6354 260.718C85.5768 260.185 85.3453 259.736 84.941 259.373C84.5367 259.01 84.0621 258.828 83.5172 258.828H77.2857C76.8521 258.828 76.483 258.98 76.1783 259.285C75.8678 259.59 75.7125 259.959 75.7125 260.393V260.718H85.6354ZM92.1769 258.292C91.6027 258.866 91.3155 259.558 91.3155 260.366V266H92.713V260.366C92.713 259.938 92.8624 259.575 93.1612 259.276C93.4659 258.978 93.8292 258.828 94.2511 258.828H101.801V257.431H94.2511C93.4425 257.431 92.7511 257.718 92.1769 258.292Z" fill="#0033FF"/>
</svg>
